<svg width="357" height="107" fill="none" xmlns="http://www.w3.org/2000/svg"><path fill-rule="evenodd" clip-rule="evenodd" d="M217.314 6.644c-.285 1.75-2.479 2.834-4.901 2.42-16.05-2.744-62.851-5.097-117.357 8.638-28.142 7.656-49.578 15.729-64.047 23.673C16.334 49.432 9.63 56.915 9.166 63.16c-.424 5.712 4.424 11.698 18.21 17.442 13.806 5.753 35.645 11.646 65.96 15.14 60.638 6.99 123.291 7.835 171.31 1.5 24.026-3.17 44.209-7.876 58.694-13.929 14.578-6.092 26.144-15.147 27.554-22.973 1.146-6.36-3.145-14.244-8.012-18.521-5.021-4.412-15.53-9.95-24.828-12.948-18.594-5.996-42.026-8.678-57.984-9.265-2.433-.09-2.903.027-2.962-.635-.059-.662.753-1.308 3.187-1.219 16.55.609 41.221 3.377 61.285 9.847 10.032 3.235 19.314 7.522 25.77 13.196 6.609 5.808 10.037 12.89 8.547 21.158-1.884 10.46-12.45 18.811-27.883 25.26-15.526 6.488-36.666 11.351-61.184 14.586-49.067 6.474-112.543 6.535-174.02-.552-30.741-3.543-53.746-8.67-69.077-15.058C8.382 79.791-.36 71.588.347 62.062c.668-8.995 9.814-17.797 24.885-26.072C40.5 27.606 62.69 19.306 91.234 11.543l.044-.011.044-.012C147.214-2.572 195.663-.316 213.443 2.724c2.422.414 4.155 2.17 3.871 3.92Z" fill="url(#a)"/><defs><linearGradient id="a" x1="14.414" y1="-16.46" x2="70.777" y2="194.629" gradientUnits="userSpaceOnUse"><stop stop-color="#FF6C21"/><stop offset="1" stop-color="#FF9863"/></linearGradient></defs></svg>