<svg width="59" height="56" fill="none" xmlns="http://www.w3.org/2000/svg"><path fill-rule="evenodd" clip-rule="evenodd" d="M32.903 21.603c9.96 11.69 11.841 17.235 14.785 26.606a.912.912 0 0 1-.388 1.048.915.915 0 0 1-1.35-.502C43.2 40.15 41.017 35.422 31.7 24.488c-5.48-6.431-14.952-11.37-25.27-13.621-1.014-.222-1.768-1.086-1.813-2.123-.062-1.44 1.242-2.562 2.645-2.227 11.188 2.666 19.374 7.73 25.641 15.086Z" fill="#FF7E3C"/><path fill-rule="evenodd" clip-rule="evenodd" d="M47.67 54.6a1.15 1.15 0 0 0 .96-1.205c-.162-2.663-.19-5.736 1.308-7.789 1.497-2.054 3.805-3.692 4.483-4.785.28-.453.625-.52.677-1.092.021-.238-.183-.167-.72.173-1.438.91-3.519 2.643-5.204 4.955-.978 1.341-1.846 2.91-2.363 4.65-1.656-2.246-4.06-3.85-6.531-4.97-1.742-.557-3.194-.79-5.795-.929-.634-.034-3.429-.009-3.443.26-.034.635.501.647 1.136.681 2.379.127 4.583.369 7.928 1.885 3.36 1.524 5.36 4.018 6.267 7.334a1.15 1.15 0 0 0 1.297.831Z" fill="#FF7E3C"/></svg>